<svg xmlns="http://www.w3.org/2000/svg" viewBox="0 0 512 512" fill="none">
  <!-- Outer Blue Disc -->
  <circle cx="256" cy="256" r="216" fill="url(#wp-grad)" stroke="#1A202C" stroke-width="20"/>
  <!-- Inner White Ring -->
  <circle cx="256" cy="256" r="186" stroke="#FFFFFF" stroke-width="16"/>
  <!-- Classic WordPress 'W' Logo Mark -->
  <path fill-rule="evenodd" clip-rule="evenodd" d="M96 256c0 62.4 36.4 116.4 89.2 142.2L119.8 214C104.4 227 96 240.6 96 256zm238.6-8.2c0-21.8-7.8-37-14.6-48.8-9-15.6-17.6-28.8-17.6-44.4 0-17.4 13.2-33.6 32-33.6 1.4 0 2.8.2 4.2.4-27.6-26.6-65.4-43-107.2-43-46.6 0-88.2 20.4-116.6 52.8 3.2.2 6.2.2 8.8.2 14.6 0 37.2-1.8 37.2-1.8 7.6-.4 8.4 10.6.8 11.4 0 0-7.6 1-16 1.8l51 151.6 30.6-91.8-21.8-60c-7.6-.8-14.8-1.6-14.8-1.6-7.6-.4-6.8-11.8.8-11.4 0 0 23 1.8 36.8 1.8 14.6 0 37.2-1.8 37.2-1.8 7.6-.4 8.4 10.6.8 11.4 0 0-7.6 1-16 1.8l50.4 150.2 14-46.8c6.2-20.2 10.8-34.6 10.8-47zm-147 167.6l54.4-158.4 56.4 155c.2.6.4 1 .6 1.4-25 7.4-51.6 11.4-79 11.4-11 0-21.8-.8-32.4-2.4v-7zm166.4-36.2l-45.2-131 3.2-10.4c6.8-20.4 12-27.6 12-39.6 0-3.6-.4-7-1.4-10.2 29.8 28.6 48.6 69.2 48.6 114.2 0 28.6-7.6 55.4-20.8 78.4l3.6-1.4v-.004z" fill="#FFFFFF"/>
  <defs>
    <linearGradient id="wp-grad" x1="80" y1="80" x2="432" y2="432" gradientUnits="userSpaceOnUse">
      <stop stop-color="#21759B"/>
      <stop offset="1" stop-color="#13547A"/>
    </linearGradient>
  </defs>
</svg>
