<svg xmlns="http://www.w3.org/2000/svg" viewBox="0 0 128 128">
  <rect width="128" height="128" rx="28" fill="#1A1C20"/>
  <!-- DaVinci Resolve colored petal wheel -->
  <g transform="translate(64, 64)">
    <path d="M0 0 L-22 -38 A44 44 0 0 1 22 -38 Z" fill="#E82438"/>
    <path d="M0 0 L22 -38 A44 44 0 0 1 44 0 Z" fill="#F49A24"/>
    <path d="M0 0 L44 0 A44 44 0 0 1 22 38 Z" fill="#00A651"/>
    <path d="M0 0 L22 38 A44 44 0 0 1 -22 38 Z" fill="#00AEEF"/>
    <path d="M0 0 L-22 38 A44 44 0 0 1 -44 0 Z" fill="#1B365D"/>
    <path d="M0 0 L-44 0 A44 44 0 0 1 -22 -38 Z" fill="#84329B"/>
    <circle cx="0" cy="0" r="12" fill="#1A1C20"/>
  </g>
</svg>
